<svg width="900" height="980" viewBox="0 0 900 980" xmlns="http://www.w3.org/2000/svg" style="background:#f5f3ef; font-family: Arial, sans-serif;">

  <!-- Title -->
  <text x="40" y="44" font-size="18" font-weight="bold" fill="#1a1916">User Cards</text>
  <text x="40" y="64" font-size="12" fill="#a09d97">Container Delivery Management System</text>
  <line x1="40" y1="76" x2="860" y2="76" stroke="#e2dfd8" stroke-width="1"/>

  <!-- Helper: card at (x,y), color vars inlined -->

  <!-- ROW 1 -->

  <!-- Dispatcher -->
  <g>
    <rect x="40" y="96" width="260" height="190" rx="12" fill="white" stroke="#e2dfd8" stroke-width="1"/>
    <rect x="40" y="96" width="260" height="3" rx="2" fill="#185FA5"/>
    <rect x="56" y="116" width="42" height="42" rx="10" fill="#E6F1FB"/>
    <text x="77" y="141" text-anchor="middle" font-size="13" font-weight="bold" fill="#185FA5">DS</text>
    <text x="110" y="132" font-size="13" font-weight="bold" fill="#1a1916">Dispatcher</text>
    <rect x="110" y="140" width="62" height="16" rx="8" fill="#E6F1FB"/>
    <text x="141" y="151" text-anchor="middle" font-size="10" fill="#185FA5">Operations</text>
    <line x1="56" y1="168" x2="284" y2="168" stroke="#e2dfd8" stroke-width="0.8"/>
    <text x="56" y="183" font-size="10" fill="#a09d97">GOAL</text>
    <text x="116" y="183" font-size="11" fill="#6b6860">Creates &amp; assigns jobs</text>
    <text x="56" y="200" font-size="10" fill="#a09d97">NEEDS</text>
    <rect x="116" y="191" width="60" height="15" rx="4" fill="#E6F1FB"/>
    <text x="146" y="201" text-anchor="middle" font-size="10" fill="#185FA5">Dispatch board</text>
    <rect x="180" y="191" width="56" height="15" rx="4" fill="#E6F1FB"/>
    <text x="208" y="201" text-anchor="middle" font-size="10" fill="#185FA5">Conflict check</text>
    <text x="56" y="217" font-size="10" fill="#a09d97">PAIN</text>
    <text x="116" y="217" font-size="11" fill="#6b6860">Double-booking trucks</text>
    <line x1="56" y1="228" x2="284" y2="228" stroke="#e2dfd8" stroke-width="0.8"/>
    <text x="56" y="243" font-size="10" fill="#a09d97">Central operator of the scheduling module. Relies on</text>
    <text x="56" y="256" font-size="10" fill="#a09d97">real-time availability to keep deliveries on schedule.</text>
  </g>

  <!-- Driver -->
  <g>
    <rect x="320" y="96" width="260" height="190" rx="12" fill="white" stroke="#e2dfd8" stroke-width="1"/>
    <rect x="320" y="96" width="260" height="3" rx="2" fill="#3B6D11"/>
    <rect x="336" y="116" width="42" height="42" rx="10" fill="#EAF3DE"/>
    <text x="357" y="141" text-anchor="middle" font-size="13" font-weight="bold" fill="#3B6D11">DR</text>
    <text x="390" y="132" font-size="13" font-weight="bold" fill="#1a1916">Driver</text>
    <rect x="390" y="140" width="38" height="16" rx="8" fill="#EAF3DE"/>
    <text x="409" y="151" text-anchor="middle" font-size="10" fill="#3B6D11">Field</text>
    <line x1="336" y1="168" x2="564" y2="168" stroke="#e2dfd8" stroke-width="0.8"/>
    <text x="336" y="183" font-size="10" fill="#a09d97">GOAL</text>
    <text x="396" y="183" font-size="11" fill="#6b6860">Complete &amp; document deliveries</text>
    <text x="336" y="200" font-size="10" fill="#a09d97">NEEDS</text>
    <rect x="396" y="191" width="46" height="15" rx="4" fill="#EAF3DE"/>
    <text x="419" y="201" text-anchor="middle" font-size="10" fill="#3B6D11">Job list</text>
    <rect x="446" y="191" width="56" height="15" rx="4" fill="#EAF3DE"/>
    <text x="474" y="201" text-anchor="middle" font-size="10" fill="#3B6D11">POD upload</text>
    <text x="336" y="217" font-size="10" fill="#a09d97">PAIN</text>
    <text x="396" y="217" font-size="11" fill="#6b6860">Unclear job instructions</text>
    <line x1="336" y1="228" x2="564" y2="228" stroke="#e2dfd8" stroke-width="0.8"/>
    <text x="336" y="243" font-size="10" fill="#a09d97">Mobile-first user. Updates status in the field and</text>
    <text x="336" y="256" font-size="10" fill="#a09d97">uploads proof of delivery photos.</text>
  </g>

  <!-- Yard Staff -->
  <g>
    <rect x="600" y="96" width="260" height="190" rx="12" fill="white" stroke="#e2dfd8" stroke-width="1"/>
    <rect x="600" y="96" width="260" height="3" rx="2" fill="#854F0B"/>
    <rect x="616" y="116" width="42" height="42" rx="10" fill="#FAEEDA"/>
    <text x="637" y="141" text-anchor="middle" font-size="13" font-weight="bold" fill="#854F0B">YS</text>
    <text x="670" y="132" font-size="13" font-weight="bold" fill="#1a1916">Yard Staff</text>
    <rect x="670" y="140" width="36" height="16" rx="8" fill="#FAEEDA"/>
    <text x="688" y="151" text-anchor="middle" font-size="10" fill="#854F0B">Yard</text>
    <line x1="616" y1="168" x2="844" y2="168" stroke="#e2dfd8" stroke-width="0.8"/>
    <text x="616" y="183" font-size="10" fill="#a09d97">GOAL</text>
    <text x="676" y="183" font-size="11" fill="#6b6860">Accurate container records</text>
    <text x="616" y="200" font-size="10" fill="#a09d97">NEEDS</text>
    <rect x="676" y="191" width="60" height="15" rx="4" fill="#FAEEDA"/>
    <text x="706" y="201" text-anchor="middle" font-size="10" fill="#854F0B">Check-in/out</text>
    <rect x="740" y="191" width="60" height="15" rx="4" fill="#FAEEDA"/>
    <text x="770" y="201" text-anchor="middle" font-size="10" fill="#854F0B">Inspections</text>
    <text x="616" y="217" font-size="10" fill="#a09d97">PAIN</text>
    <text x="676" y="217" font-size="11" fill="#6b6860">Containers listed but damaged</text>
    <line x1="616" y1="228" x2="844" y2="228" stroke="#e2dfd8" stroke-width="0.8"/>
    <text x="616" y="243" font-size="10" fill="#a09d97">Handles physical container tracking. Keeps the</text>
    <text x="616" y="256" font-size="10" fill="#a09d97">module accurate for dispatcher availability data.</text>
  </g>

  <!-- ROW 2 -->

  <!-- Admin -->
  <g>
    <rect x="40" y="310" width="260" height="190" rx="12" fill="white" stroke="#e2dfd8" stroke-width="1"/>
    <rect x="40" y="310" width="260" height="3" rx="2" fill="#534AB7"/>
    <rect x="56" y="330" width="42" height="42" rx="10" fill="#EEEDFE"/>
    <text x="77" y="355" text-anchor="middle" font-size="13" font-weight="bold" fill="#534AB7">AD</text>
    <text x="110" y="346" font-size="13" font-weight="bold" fill="#1a1916">System Admin</text>
    <rect x="110" y="354" width="40" height="16" rx="8" fill="#EEEDFE"/>
    <text x="130" y="365" text-anchor="middle" font-size="10" fill="#534AB7">Admin</text>
    <line x1="56" y1="382" x2="284" y2="382" stroke="#e2dfd8" stroke-width="0.8"/>
    <text x="56" y="397" font-size="10" fill="#a09d97">GOAL</text>
    <text x="116" y="397" font-size="11" fill="#6b6860">Keep system secure &amp; configured</text>
    <text x="56" y="414" font-size="10" fill="#a09d97">NEEDS</text>
    <rect x="116" y="405" width="68" height="15" rx="4" fill="#EEEDFE"/>
    <text x="150" y="415" text-anchor="middle" font-size="10" fill="#534AB7">User management</text>
    <rect x="188" y="405" width="52" height="15" rx="4" fill="#EEEDFE"/>
    <text x="214" y="415" text-anchor="middle" font-size="10" fill="#534AB7">Role control</text>
    <text x="56" y="431" font-size="10" fill="#a09d97">PAIN</text>
    <text x="116" y="431" font-size="11" fill="#6b6860">Cascading misconfiguration failures</text>
    <line x1="56" y1="442" x2="284" y2="442" stroke="#e2dfd8" stroke-width="0.8"/>
    <text x="56" y="457" font-size="10" fill="#a09d97">Manages users and permissions across all modules.</text>
    <text x="56" y="470" font-size="10" fill="#a09d97">Ensures no conflicts from wrong role assignments.</text>
  </g>

  <!-- Accountant -->
  <g>
    <rect x="320" y="310" width="260" height="190" rx="12" fill="white" stroke="#e2dfd8" stroke-width="1"/>
    <rect x="320" y="310" width="260" height="3" rx="2" fill="#0F6E56"/>
    <rect x="336" y="330" width="42" height="42" rx="10" fill="#E1F5EE"/>
    <text x="357" y="355" text-anchor="middle" font-size="13" font-weight="bold" fill="#0F6E56">AC</text>
    <text x="390" y="346" font-size="13" font-weight="bold" fill="#1a1916">Accountant</text>
    <rect x="390" y="354" width="46" height="16" rx="8" fill="#E1F5EE"/>
    <text x="413" y="365" text-anchor="middle" font-size="10" fill="#0F6E56">Finance</text>
    <line x1="336" y1="382" x2="564" y2="382" stroke="#e2dfd8" stroke-width="0.8"/>
    <text x="336" y="397" font-size="10" fill="#a09d97">GOAL</text>
    <text x="396" y="397" font-size="11" fill="#6b6860">Generate invoices, track payments</text>
    <text x="336" y="414" font-size="10" fill="#a09d97">NEEDS</text>
    <rect x="396" y="405" width="64" height="15" rx="4" fill="#E1F5EE"/>
    <text x="428" y="415" text-anchor="middle" font-size="10" fill="#0F6E56">Invoice gen.</text>
    <rect x="464" y="405" width="58" height="15" rx="4" fill="#E1F5EE"/>
    <text x="493" y="415" text-anchor="middle" font-size="10" fill="#0F6E56">Payment track</text>
    <text x="336" y="431" font-size="10" fill="#a09d97">PAIN</text>
    <text x="396" y="431" font-size="11" fill="#6b6860">Late invoicing after delivery</text>
    <line x1="336" y1="442" x2="564" y2="442" stroke="#e2dfd8" stroke-width="0.8"/>
    <text x="336" y="457" font-size="10" fill="#a09d97">Operates invoices and payments module. Depends</text>
    <text x="336" y="470" font-size="10" fill="#a09d97">on timely delivery confirmations to bill customers.</text>
  </g>

  <!-- Management -->
  <g>
    <rect x="600" y="310" width="260" height="190" rx="12" fill="white" stroke="#e2dfd8" stroke-width="1"/>
    <rect x="600" y="310" width="260" height="3" rx="2" fill="#993556"/>
    <rect x="616" y="330" width="42" height="42" rx="10" fill="#FBEAF0"/>
    <text x="637" y="355" text-anchor="middle" font-size="13" font-weight="bold" fill="#993556">MG</text>
    <text x="670" y="346" font-size="13" font-weight="bold" fill="#1a1916">Management</text>
    <rect x="670" y="354" width="56" height="16" rx="8" fill="#FBEAF0"/>
    <text x="698" y="365" text-anchor="middle" font-size="10" fill="#993556">Executive</text>
    <line x1="616" y1="382" x2="844" y2="382" stroke="#e2dfd8" stroke-width="0.8"/>
    <text x="616" y="397" font-size="10" fill="#a09d97">GOAL</text>
    <text x="676" y="397" font-size="11" fill="#6b6860">Monitor KPIs, strategic decisions</text>
    <text x="616" y="414" font-size="10" fill="#a09d97">NEEDS</text>
    <rect x="676" y="405" width="74" height="15" rx="4" fill="#FBEAF0"/>
    <text x="713" y="415" text-anchor="middle" font-size="10" fill="#993556">Revenue reports</text>
    <rect x="754" y="405" width="56" height="15" rx="4" fill="#FBEAF0"/>
    <text x="782" y="415" text-anchor="middle" font-size="10" fill="#993556">KPI dashboard</text>
    <text x="616" y="431" font-size="10" fill="#a09d97">PAIN</text>
    <text x="676" y="431" font-size="11" fill="#6b6860">No consolidated performance view</text>
    <line x1="616" y1="442" x2="844" y2="442" stroke="#e2dfd8" stroke-width="0.8"/>
    <text x="616" y="457" font-size="10" fill="#a09d97">Read-only executive users. Consume reports on</text>
    <text x="616" y="470" font-size="10" fill="#a09d97">deliveries, revenue, and resource utilization.</text>
  </g>

  <!-- ROW 3 -->

  <!-- Customer -->
  <g>
    <rect x="40" y="524" width="260" height="190" rx="12" fill="white" stroke="#e2dfd8" stroke-width="1"/>
    <rect x="40" y="524" width="260" height="3" rx="2" fill="#993C1D"/>
    <rect x="56" y="544" width="42" height="42" rx="10" fill="#FAECE7"/>
    <text x="77" y="569" text-anchor="middle" font-size="13" font-weight="bold" fill="#993C1D">CU</text>
    <text x="110" y="560" font-size="13" font-weight="bold" fill="#1a1916">Customer</text>
    <rect x="110" y="568" width="52" height="16" rx="8" fill="#FAECE7"/>
    <text x="136" y="579" text-anchor="middle" font-size="10" fill="#993C1D">External</text>
    <line x1="56" y1="596" x2="284" y2="596" stroke="#e2dfd8" stroke-width="0.8"/>
    <text x="56" y="611" font-size="10" fill="#a09d97">GOAL</text>
    <text x="116" y="611" font-size="11" fill="#6b6860">Request jobs, track status &amp; invoices</text>
    <text x="56" y="628" font-size="10" fill="#a09d97">NEEDS</text>
    <rect x="116" y="619" width="60" height="15" rx="4" fill="#FAECE7"/>
    <text x="146" y="629" text-anchor="middle" font-size="10" fill="#993C1D">Job request</text>
    <rect x="180" y="619" width="60" height="15" rx="4" fill="#FAECE7"/>
    <text x="210" y="629" text-anchor="middle" font-size="10" fill="#993C1D">Status track</text>
    <text x="56" y="645" font-size="10" fill="#a09d97">PAIN</text>
    <text x="116" y="645" font-size="11" fill="#6b6860">No visibility without calling in</text>
    <line x1="56" y1="656" x2="284" y2="656" stroke="#e2dfd8" stroke-width="0.8"/>
    <text x="56" y="671" font-size="10" fill="#a09d97">Optional portal user. Wants self-service access to</text>
    <text x="56" y="684" font-size="10" fill="#a09d97">job status and invoices. Reduces support calls.</text>
  </g>

  <!-- IT/Dev -->
  <g>
    <rect x="320" y="524" width="260" height="190" rx="12" fill="white" stroke="#e2dfd8" stroke-width="1"/>
    <rect x="320" y="524" width="260" height="3" rx="2" fill="#444441"/>
    <rect x="336" y="544" width="42" height="42" rx="10" fill="#F1EFE8"/>
    <text x="357" y="569" text-anchor="middle" font-size="13" font-weight="bold" fill="#444441">IT</text>
    <text x="390" y="560" font-size="13" font-weight="bold" fill="#1a1916">IT / Developers</text>
    <rect x="390" y="568" width="58" height="16" rx="8" fill="#F1EFE8"/>
    <text x="419" y="579" text-anchor="middle" font-size="10" fill="#444441">Technical</text>
    <line x1="336" y1="596" x2="564" y2="596" stroke="#e2dfd8" stroke-width="0.8"/>
    <text x="336" y="611" font-size="10" fill="#a09d97">GOAL</text>
    <text x="396" y="611" font-size="11" fill="#6b6860">Reliability, security, performance</text>
    <text x="336" y="628" font-size="10" fill="#a09d97">NEEDS</text>
    <rect x="396" y="619" width="58" height="15" rx="4" fill="#F1EFE8"/>
    <text x="425" y="629" text-anchor="middle" font-size="10" fill="#444441">System logs</text>
    <rect x="458" y="619" width="60" height="15" rx="4" fill="#F1EFE8"/>
    <text x="488" y="629" text-anchor="middle" font-size="10" fill="#444441">Deploy tools</text>
    <text x="336" y="645" font-size="10" fill="#a09d97">PAIN</text>
    <text x="396" y="645" font-size="11" fill="#6b6860">Unclear cross-module error tracing</text>
    <line x1="336" y1="656" x2="564" y2="656" stroke="#e2dfd8" stroke-width="0.8"/>
    <text x="336" y="671" font-size="10" fill="#a09d97">Backstage stakeholders keeping the platform running.</text>
    <text x="336" y="684" font-size="10" fill="#a09d97">Focus on observability, uptime, and deployments.</text>
  </g>

  <!-- Regulators -->
  <g>
    <rect x="600" y="524" width="260" height="190" rx="12" fill="white" stroke="#e2dfd8" stroke-width="1"/>
    <rect x="600" y="524" width="260" height="3" rx="2" fill="#A32D2D"/>
    <rect x="616" y="544" width="42" height="42" rx="10" fill="#FCEBEB"/>
    <text x="637" y="569" text-anchor="middle" font-size="13" font-weight="bold" fill="#A32D2D">RG</text>
    <text x="670" y="560" font-size="13" font-weight="bold" fill="#1a1916">Regulators</text>
    <rect x="670" y="568" width="68" height="16" rx="8" fill="#FCEBEB"/>
    <text x="704" y="579" text-anchor="middle" font-size="10" fill="#A32D2D">External / Gov</text>
    <line x1="616" y1="596" x2="844" y2="596" stroke="#e2dfd8" stroke-width="0.8"/>
    <text x="616" y="611" font-size="10" fill="#a09d97">GOAL</text>
    <text x="676" y="611" font-size="11" fill="#6b6860">Compliance &amp; safety oversight</text>
    <text x="616" y="628" font-size="10" fill="#a09d97">NEEDS</text>
    <rect x="676" y="619" width="74" height="15" rx="4" fill="#FCEBEB"/>
    <text x="713" y="629" text-anchor="middle" font-size="10" fill="#A32D2D">Safety records</text>
    <rect x="754" y="619" width="60" height="15" rx="4" fill="#FCEBEB"/>
    <text x="784" y="629" text-anchor="middle" font-size="10" fill="#A32D2D">Audit reports</text>
    <text x="616" y="645" font-size="10" fill="#a09d97">PAIN</text>
    <text x="676" y="645" font-size="11" fill="#6b6860">Missing or incomplete documentation</text>
    <line x1="616" y1="656" x2="844" y2="656" stroke="#e2dfd8" stroke-width="0.8"/>
    <text x="616" y="671" font-size="10" fill="#a09d97">External government or transport regulators who</text>
    <text x="616" y="684" font-size="10" fill="#a09d97">require compliance docs and operational records.</text>
  </g>

</svg>
